{"title":"22 Jump Street 2014 720p TS With Line Audio x264 Pimp4003","uid":10662033,"size":1802281244,"categoryP":"video","categoryS":"hd___movies","magnet":"?xt=urn:btih:f3aebf42fca7c232b7ec1e8606ed50674d097dda&amp;dn=22+Jump+Street+2014+720p+TS+With+Line+Audio+x264+Pimp4003&amp;tr=udp%3A%2F%2Ftracker.openbittorrent.com%3A80&amp;tr=udp%3A%2F%2Fopen.demonii.com%3A1337&amp;tr=udp%3A%2F%2Ftracker.coppersurfer.tk%3A6969&amp;tr=udp%3A%2F%2Fexodus.desync.com%3A6969","seeders":24,"leechers":0,"uploader":"shawnmurthy","files":-1,"time":1406741621,"description":"[color=red][b]THIS ONE TOOK A LITTLE BIT OF WORK BUT THE EFFORT WAS WORTH IT SINCE IT CAME OUT GOOD DID ABOUT 15 CUTS ON THE VIDEO ONLY SINCE THERE WAS A GLARE SOMETIMES IN THE MIDDLE ALSO RANDOM FLICKERING ALSO.....AUDIO WAS BLACK4PERL STUDIO AUDIO....TOOK THAT AND FILTERED IT BETTER AND MIXED IT BACK UP WITH IT SOUNDING BETTER.......ENJOY....PIMP4003....ONE MORE THING I KNOW PEOPLE COMPLAIN WHY I DO 720P CAMS AND TS THAT IS BECAUSE WHEN ITS LIKE THAT I CAN MAKE IT LOOK BETTER AND THAT WAY PEOPLE CAN WATCH IT ON BIG TV....SO ITS NOT FAKE AND I WILL NEVER CHANGE THIS....SO IF YOU DONT LIKE IT THATS TOO BAD CAUSE I DONT CARE...HAHAH.....PIMP4003[/b][/color]\n\n[IMG]http://i.imgur.com/Q7K4oJu.png[/IMG]\n\n[IMG]http://i.imgur.com/69uL5sU.jpg[/IMG]\n\n[URL=http://istoreimg.com/i/53d8f6a470fd3.html][IMG]http://istoreimg.com/upload/small/2014/07/31/53d8f6a470f97.jpg[/IMG][/URL]\n\n[color=blue][b]REQUESTS, SCREENSHOTS, VIDEO INFO, SAMPLE AND FOR EXCLUSIVE RELEASES VISIT BELOW LINK[/b][/color]\n\n22 Jump Street 2014 720p TS With Line Audio x264 Pimp4003\n\nENJOY\n\nPIMP4003\n\nVideo\nID                                       : 2\nFormat                                   : AVC\nFormat/Info                              : Advanced Video Codec\nFormat profile                           : &lt;a class=&quot;__cf_email__&quot; href=&quot;/cdn-cgi/l/email-protection&quot; data-cfemail=&quot;ecae8d9f8980858289aca0dfc2dc&quot;&gt;[email&amp;#160;protected]&lt;/a&gt;&lt;script cf-hash='f9e31' type=&quot;text/javascript&quot;&gt;\n/* &lt;![CDATA[ */!function(){try{var t=&quot;currentScript&quot;in document?document.currentScript:function(){for(var t=document.getElementsByTagName(&quot;script&quot;),e=t.length;e--;)if(t[e].getAttribute(&quot;cf-hash&quot;))return t[e]}();if(t&amp;&amp;t.previousSibling){var e,r,n,i,c=t.previousSibling,a=c.getAttribute(&quot;data-cfemail&quot;);if(a){for(e=&quot;&quot;,r=parseInt(a.substr(0,2),16),n=2;a.length-n;n+=2)i=parseInt(a.substr(n,2),16)^r,e+=String.fromCharCode(i);e=document.createTextNode(e),c.parentNode.replaceChild(e,c)}}}catch(u){}}();/* ]]&gt; */&lt;/script&gt;\nFormat settings, CABAC                   : No\nFormat settings, ReFrames                : 1 frame\nFormat settings, GOP                     : M=1, N=25\nMuxing mode                              : Container profile=&lt;a class=&quot;__cf_email__&quot; href=&quot;/cdn-cgi/l/email-protection&quot; data-cfemail=&quot;abe9cad8cec7c2c5ceeb9f859a&quot;&gt;[email&amp;#160;protected]&lt;/a&gt;&lt;script cf-hash='f9e31' type=&quot;text/javascript&quot;&gt;\n/* &lt;![CDATA[ */!function(){try{var t=&quot;currentScript&quot;in document?document.currentScript:function(){for(var t=document.getElementsByTagName(&quot;script&quot;),e=t.length;e--;)if(t[e].getAttribute(&quot;cf-hash&quot;))return t[e]}();if(t&amp;&amp;t.previousSibling){var e,r,n,i,c=t.previousSibling,a=c.getAttribute(&quot;data-cfemail&quot;);if(a){for(e=&quot;&quot;,r=parseInt(a.substr(0,2),16),n=2;a.length-n;n+=2)i=parseInt(a.substr(n,2),16)^r,e+=String.fromCharCode(i);e=document.createTextNode(e),c.parentNode.replaceChild(e,c)}}}catch(u){}}();/* ]]&gt; */&lt;/script&gt;\nCodec ID                                 : avc1\nCodec ID/Info                            : Advanced Video Coding\nDuration                                 : 1h 46mn\nBit rate                                 : 2 092 Kbps\nWidth                                    : 1 280 pixels\nHeight                                   : 720 pixels\nDisplay aspect ratio                     : 16:9\nFrame rate mode                          : Constant\nFrame rate                               : 23.976 fps\nOriginal frame rate                      : 23.000 fps\nColor space                              : YUV\nChroma subsampling                       : 4:2:0\nBit depth                                : 8 bits\nScan type                                : Progressive\nBits/(Pixel*Frame)                       : 0.095\nStream size                              : 1.55 GiB (92%)\nWriting library                          : \nLanguage                                 : English\n\nAudio\nID                                       : 1\nFormat                                   : AAC\nFormat/Info                              : Advanced Audio Codec\nFormat profile                           : LC\nCodec ID                                 : 40\nDuration                                 : 1h 46mn\nBit rate mode                            : Constant\nBit rate                                 : 165 Kbps\nChannel(s)                               : 2 channels\nChannel positions                        : Front: L R\nSampling rate                            : 48.0 KHz\nCompression mode                         : Lossy\nStream size                              : 126 MiB (7%)\nLanguage                                 : English\n","torrent":{"xt":"urn:btih:f3aebf42fca7c232b7ec1e8606ed50674d097dda","amp;dn":"22+Jump+Street+2014+720p+TS+With+Line+Audio+x264+Pimp4003","amp;tr":["udp%3A%2F%2Ftracker.openbittorrent.com%3A80","udp%3A%2F%2Fopen.demonii.com%3A1337","udp%3A%2F%2Ftracker.coppersurfer.tk%3A6969","udp%3A%2F%2Fexodus.desync.com%3A6969"],"infoHash":"f3aebf42fca7c232b7ec1e8606ed50674d097dda","infoHashBuffer":{"type":"Buffer","data":[243,174,191,66,252,167,194,50,183,236,30,134,6,237,80,103,77,9,125,218]},"announce":[],"urlList":[]}}